<?xml version="1.0" encoding="UTF-8" standalone="no"?>
<svg
   width="16"
   height="16"
   version="1.1"
   id="svg4"
   sodipodi:docname="copyright.svg"
   inkscape:version="1.3.2 (091e20e, 2023-11-25, custom)"
   xmlns:inkscape="http://www.inkscape.org/namespaces/inkscape"
   xmlns:sodipodi="http://sodipodi.sourceforge.net/DTD/sodipodi-0.dtd"
   xmlns="http://www.w3.org/2000/svg"
   xmlns:svg="http://www.w3.org/2000/svg">
  <defs
     id="defs4" />
  <sodipodi:namedview
     id="namedview4"
     pagecolor="#ffffff"
     bordercolor="#111111"
     borderopacity="1"
     inkscape:showpageshadow="0"
     inkscape:pageopacity="0"
     inkscape:pagecheckerboard="1"
     inkscape:deskcolor="#d1d1d1"
     inkscape:zoom="31.730071"
     inkscape:cx="9.6753644"
     inkscape:cy="8.1783618"
     inkscape:window-width="2560"
     inkscape:window-height="1361"
     inkscape:window-x="2551"
     inkscape:window-y="-9"
     inkscape:window-maximized="1"
     inkscape:current-layer="svg4" />
  <path
     id="circle1"
     style="stroke-width:1;fill:#f5f5f5;fill-opacity:1"
     d="M 8 0 A 7.9999997 7.9999997 0 0 0 0 8 A 7.9999997 7.9999997 0 0 0 8 16 A 7.9999997 7.9999997 0 0 0 16 8 A 7.9999997 7.9999997 0 0 0 8 0 z M 8 1.6328125 A 6.3673467 6.3673467 0 0 1 14.367188 8 A 6.3673467 6.3673467 0 0 1 8 14.367188 A 6.3673467 6.3673467 0 0 1 1.6328125 8 A 6.3673467 6.3673467 0 0 1 8 1.6328125 z M 8 3.5097656 A 4.4897957 4.4897957 0 0 0 3.5097656 8 A 4.4897957 4.4897957 0 0 0 8 12.490234 A 4.4897957 4.4897957 0 0 0 12.369141 8.9804688 L 10.240234 8.9804688 A 2.4489795 2.4489795 0 0 1 8 10.449219 A 2.4489795 2.4489795 0 0 1 5.5507812 8 A 2.4489795 2.4489795 0 0 1 8 5.5507812 A 2.4489795 2.4489795 0 0 1 10.207031 6.9394531 L 12.361328 6.9394531 A 4.4897957 4.4897957 0 0 0 8 3.5097656 z " />
</svg>
